<svg width="24" height="19" viewBox="0 0 24 19" fill="none" xmlns="http://www.w3.org/2000/svg">
<path fill-rule="evenodd" clip-rule="evenodd" d="M0 1.36639C0 0.814109 0.447715 0.366394 1 0.366394H23C23.5523 0.366394 24 0.814109 24 1.36639C24 1.91868 23.5523 2.36639 23 2.36639H1C0.447715 2.36639 0 1.91868 0 1.36639ZM0 9.36639C0 8.81411 0.447715 8.36639 1 8.36639H23C23.5523 8.36639 24 8.81411 24 9.36639C24 9.91868 23.5523 10.3664 23 10.3664H1C0.447715 10.3664 0 9.91868 0 9.36639ZM0 17.3664C0 16.8141 0.447715 16.3664 1 16.3664H23C23.5523 16.3664 24 16.8141 24 17.3664C24 17.9187 23.5523 18.3664 23 18.3664H1C0.447715 18.3664 0 17.9187 0 17.3664Z" fill="white"/>
</svg>
